<svg width="195" height="70" viewBox="0 0 195 70" fill="none" xmlns="http://www.w3.org/2000/svg">
<path d="M0.706442 57.8825H0.529831C0.353221 57.8104 0.264916 57.6661 0.264916 57.4498L1.58949 50.6337C1.23627 50.7058 0.912487 50.7419 0.618136 50.7419C0.206045 50.5976 0 50.2731 0 49.7682L0.0883051 49.119C0.206045 48.6141 0.470961 48.3617 0.883052 48.3617L1.50119 48.4699L2.03102 48.7944C4.50357 36.5327 7.47651 23.9825 10.9498 11.1437C12.4805 5.95054 13.805 2.56054 14.9236 0.973725C15.5123 0.396702 16.0127 0.10819 16.4248 0.10819H16.6897C17.2784 0.180321 17.661 0.613089 17.8377 1.40649L17.926 2.16383C17.926 3.31788 17.5139 5.26533 16.6897 8.00618C15.6889 11.1798 14.1877 15.255 12.1861 20.2318L7.15272 32.1329C7.15272 32.205 7.12329 32.2411 7.06442 32.2411L3.26729 48.0371C4.56244 47.0994 5.85758 45.9454 7.15272 44.575C9.03657 42.7718 9.97849 41.221 9.97849 39.9227C10.1551 39.1293 10.5083 38.7326 11.0382 38.7326C11.6857 38.8769 12.0095 39.2375 12.0095 39.8145V40.0309C12.0095 41.1128 11.5385 42.2669 10.5966 43.493C9.30148 45.152 7.71199 46.7388 5.82814 48.2535L3.53221 49.7682C4.82735 50.7058 6.18136 51.391 7.59425 51.8238C8.24182 51.9681 8.91883 52.0402 9.62527 52.0402C11.3914 52.0402 13.0986 51.6435 14.747 50.8501C17.455 49.5518 19.7509 48.1092 21.6348 46.5224C23.5186 44.8635 24.4605 44.034 24.4605 44.034C24.5783 43.9619 24.6666 43.9258 24.7255 43.9258L24.9904 44.034L25.167 44.3586L24.9904 44.7913C24.9904 44.7913 24.0485 45.6929 22.1646 47.4961C20.2808 49.2272 17.926 50.7779 15.1002 52.1484C13.3341 53.086 11.5091 53.5549 9.62527 53.5549C8.85996 53.5549 8.09464 53.4467 7.32933 53.2303C6.38741 52.9418 5.41605 52.509 4.41526 51.932C3.76769 51.5714 3.14955 51.1746 2.56085 50.7419L1.05966 57.558C1.00079 57.7743 0.883052 57.8825 0.706442 57.8825ZM9.36035 23.5858C12.9514 13.6321 15.0708 7.06852 15.7183 3.8949C14.0111 8.00618 11.9212 14.4256 9.44866 23.153L9.36035 23.5858Z" fill="#828282"/>
<path d="M34.1886 60.2627H33.5705C31.1568 59.6857 29.9205 57.9186 29.8616 54.9614V54.4204C29.8616 52.2566 30.2149 49.9124 30.9213 47.3879C30.2149 48.4699 29.3907 49.5518 28.4488 50.6337C26.7415 52.7975 25.0049 54.5647 23.2388 55.9351C22.6501 56.3678 22.1791 56.5842 21.8259 56.5842L21.296 56.476C20.5307 56.2597 20.1481 55.5744 20.1481 54.4204V54.3122C20.1481 53.4467 20.4719 52.1844 21.1194 50.5255C21.7081 48.8666 22.5029 47.2076 23.5037 45.5487C24.9754 43.3127 26.5649 41.762 28.2722 40.8964C28.8609 40.6079 29.4496 40.4637 30.0383 40.4637C30.9213 40.4637 31.7749 40.7883 32.5991 41.4374C33.1878 40.5719 33.4822 40.1391 33.4822 40.1391C33.7176 39.7785 33.9531 39.5981 34.1886 39.5981L34.7184 39.8145C34.9539 40.103 35.0717 40.4276 35.0717 40.7883C35.0717 41.0046 35.0422 41.185 34.9834 41.3292C34.9834 41.3292 34.5124 42.5914 33.5705 45.1159C32.6285 47.5683 31.981 50.1649 31.6278 52.9057C31.5689 53.4827 31.5394 54.0958 31.5394 54.745C31.5394 55.6826 31.6866 56.476 31.981 57.1252C32.3342 57.7743 32.9229 58.2071 33.7471 58.4235L34.5418 58.5317C37.0144 58.5317 40.1934 57.2334 44.0788 54.6368C47.7876 52.3287 51.1138 49.9845 54.0573 47.6043C57.0008 45.2241 58.4725 44.034 58.4725 44.034L58.7375 43.9258L59.0907 44.1422L59.179 44.4668L59.0024 44.7913C59.0024 44.7913 57.5306 46.0536 54.5871 48.578C51.6436 51.1025 48.3174 53.5909 44.6086 56.0433C40.3111 58.8563 36.8378 60.2627 34.1886 60.2627ZM22.7089 53.0139C24.1218 51.8599 25.5347 50.4534 26.9476 48.7944C28.3605 47.0634 29.6262 45.4766 30.7447 44.034L29.95 43.8176C29.2435 43.8176 28.5371 44.1422 27.8306 44.7913C25.4758 47.0273 23.8275 49.6239 22.8855 52.5811L22.7089 53.0139Z" fill="#828282"/>
<path d="M68.1654 60.2627H67.5473C65.1336 59.6857 63.8973 57.9186 63.8385 54.9614V54.4204C63.8385 52.2566 64.1917 49.9124 64.8981 47.3879C64.1917 48.4699 63.3675 49.5518 62.4256 50.6337C60.7183 52.7975 58.9817 54.5647 57.2156 55.9351C56.6269 56.3678 56.1559 56.5842 55.8027 56.5842L55.2729 56.476C54.5075 56.2597 54.1249 55.5744 54.1249 54.4204V54.3122C54.1249 53.4467 54.4487 52.1844 55.0962 50.5255C55.6849 48.8666 56.4797 47.2076 57.4805 45.5487C58.9522 43.3127 60.5417 41.762 62.249 40.8964C62.8377 40.6079 63.4264 40.4637 64.0151 40.4637C64.8981 40.4637 65.7517 40.7883 66.5759 41.4374C67.1646 40.5719 67.459 40.1391 67.459 40.1391C67.6945 39.7785 67.9299 39.5981 68.1654 39.5981L68.6952 39.8145C68.9307 40.103 69.0485 40.4276 69.0485 40.7883C69.0485 41.0046 69.019 41.185 68.9602 41.3292C68.9602 41.3292 68.4892 42.5914 67.5473 45.1159C66.6054 47.5683 65.9578 50.1649 65.6046 52.9057C65.5457 53.4827 65.5163 54.0958 65.5163 54.745C65.5163 55.6826 65.6634 56.476 65.9578 57.1252C66.311 57.7743 66.8997 58.2071 67.7239 58.4235L68.5186 58.5317C70.9912 58.5317 74.1702 57.2334 78.0556 54.6368C81.7644 52.3287 85.0906 49.9845 88.0341 47.6043C90.9776 45.2241 92.4493 44.034 92.4493 44.034L92.7143 43.9258L93.0675 44.1422L93.1558 44.4668L92.9792 44.7913C92.9792 44.7913 91.5074 46.0536 88.5639 48.578C85.6204 51.1025 82.2943 53.5909 78.5854 56.0433C74.2879 58.8563 70.8146 60.2627 68.1654 60.2627ZM56.6857 53.0139C58.0986 51.8599 59.5115 50.4534 60.9244 48.7944C62.3373 47.0634 63.603 45.4766 64.7215 44.034L63.9268 43.8176C63.2203 43.8176 62.5139 44.1422 61.8074 44.7913C59.4526 47.0273 57.8043 49.6239 56.8623 52.5811L56.6857 53.0139Z" fill="#828282"/>
<path d="M92.7819 70C92.0166 70 91.369 69.7115 90.8392 69.1345C90.015 68.2689 89.6029 66.5018 89.6029 63.8331V63.0757C89.7795 58.3153 90.6331 52.1484 92.1637 44.575C92.1637 44.3586 92.1932 44.1783 92.252 44.034L93.0468 40.3555C95.9314 27.4446 99.0515 16.5894 102.407 7.7898C104.173 3.39001 105.645 0.865537 106.822 0.216387C107.176 0.072129 107.47 0 107.705 0C108.235 0 108.589 0.252448 108.765 0.757345C108.942 1.11798 109.03 1.62288 109.03 2.27203L108.942 3.35394C108.706 4.94075 108.088 7.21278 107.087 10.17C103.437 20.7007 99.1987 31.4116 94.3714 42.3029C92.4287 50.8861 91.3101 57.8104 91.0158 63.0757V64.4822C91.0158 66.2133 91.2218 67.3673 91.6339 67.9444C91.9871 68.2329 92.3698 68.3771 92.7819 68.3771L93.8415 68.1607C95.431 67.5116 97.256 66.1412 99.3165 64.0495C103.025 60.1546 106.469 55.863 109.648 51.1747C112.886 46.4863 114.505 44.1422 114.505 44.1422C114.564 43.9979 114.682 43.9258 114.858 43.9258L115.035 44.034C115.153 44.1061 115.211 44.2143 115.211 44.3586L115.123 44.6831C115.123 44.6831 113.534 47.0994 110.355 51.932C107.176 56.6924 103.732 61.0922 100.023 65.1314C97.8447 67.4395 95.902 68.9541 94.1948 69.6754C93.7238 69.8918 93.2528 70 92.7819 70ZM107.176 2.27203C107.176 2.05564 107.117 1.94745 106.999 1.94745V2.05564L107.176 2.27203ZM96.6673 33.2148C101.73 20.0876 105.203 10.0258 107.087 3.02937C106.263 4.18341 105.321 6.13086 104.262 8.87172C101.73 15.2911 99.1987 23.4055 96.6673 33.2148Z" fill="#828282"/>
<path d="M115.827 56.8006C115.121 56.8006 114.562 56.6203 114.15 56.2597C113.384 55.6105 112.913 54.6368 112.737 53.3385V52.4729C112.737 50.3812 113.178 48.0371 114.061 45.4405C114.944 42.8439 115.386 41.5456 115.386 41.5456C115.739 40.9686 116.122 40.6801 116.534 40.6801C116.828 40.6801 117.064 40.7522 117.24 40.8964C117.711 41.2571 117.947 41.762 117.947 42.4111L117.77 43.1685C117.77 43.1685 117.329 44.1061 116.446 45.9815C115.621 47.8568 115.062 49.7682 114.768 51.7156L114.679 53.1221C114.679 53.627 114.797 54.0598 115.033 54.4204C115.386 54.7089 115.857 54.8532 116.446 54.8532C118.918 54.4925 121.891 53.3745 125.364 51.4992C128.661 49.7682 131.634 48.0732 134.283 46.4142C136.932 44.7553 138.257 43.9258 138.257 43.9258H138.434L138.787 44.1422L138.963 44.4668C138.963 44.5389 138.875 44.6471 138.699 44.7913C138.699 44.7913 137.374 45.6929 134.725 47.4961C132.134 49.2993 129.191 51.1386 125.894 53.0139C122.185 55.0335 119.095 56.2597 116.622 56.6924L115.827 56.8006ZM118.212 38.0835H118.035C117.858 38.0113 117.77 37.8671 117.77 37.6507V35.4869C117.77 35.2705 117.829 35.018 117.947 34.7295C118.065 34.2246 118.182 33.864 118.3 33.6476C118.594 33.287 118.83 33.0706 119.006 32.9985L119.36 32.8903C119.831 32.8903 120.184 33.2148 120.419 33.864L120.508 33.9722C120.508 34.4771 120.184 35.2344 119.536 36.2442L118.477 37.7589C118.477 37.9753 118.388 38.0835 118.212 38.0835Z" fill="#828282"/>
<path d="M138.487 70C137.721 70 137.074 69.7115 136.544 69.1345C135.72 68.2689 135.308 66.5018 135.308 63.8331V63.0757C135.484 58.3153 136.338 52.1484 137.869 44.575C137.869 44.3586 137.898 44.1783 137.957 44.034L138.752 40.3555C141.636 27.4446 144.756 16.5894 148.112 7.7898C149.878 3.39001 151.35 0.865537 152.527 0.216387C152.88 0.072129 153.175 0 153.41 0C153.94 0 154.293 0.252448 154.47 0.757345C154.647 1.11798 154.735 1.62288 154.735 2.27203L154.647 3.35394C154.411 4.94075 153.793 7.21278 152.792 10.17C149.142 20.7007 144.904 31.4116 140.076 42.3029C138.133 50.8861 137.015 57.8104 136.721 63.0757V64.4822C136.721 66.2133 136.927 67.3673 137.339 67.9444C137.692 68.2329 138.075 68.3771 138.487 68.3771L139.546 68.1607C141.136 67.5116 142.961 66.1412 145.021 64.0495C148.73 60.1546 152.174 55.863 155.353 51.1747C158.591 46.4863 160.21 44.1422 160.21 44.1422C160.269 43.9979 160.386 43.9258 160.563 43.9258L160.74 44.034C160.857 44.1061 160.916 44.2143 160.916 44.3586L160.828 44.6831C160.828 44.6831 159.238 47.0994 156.059 51.932C152.88 56.6924 149.437 61.0922 145.728 65.1314C143.55 67.4395 141.607 68.9541 139.9 69.6754C139.429 69.8918 138.958 70 138.487 70ZM152.88 2.27203C152.88 2.05564 152.822 1.94745 152.704 1.94745V2.05564L152.88 2.27203ZM142.372 33.2148C147.435 20.0876 150.908 10.0258 152.792 3.02937C151.968 4.18341 151.026 6.13086 149.966 8.87172C147.435 15.2911 144.904 23.4055 142.372 33.2148Z" fill="#828282"/>
<path d="M170.01 60.2627H169.391C166.978 59.6857 165.742 57.9186 165.683 54.9614V54.4204C165.683 52.2566 166.036 49.9124 166.742 47.3879C166.036 48.4699 165.212 49.5518 164.27 50.6337C162.563 52.7975 160.826 54.5647 159.06 55.9351C158.471 56.3678 158 56.5842 157.647 56.5842L157.117 56.476C156.352 56.2597 155.969 55.5744 155.969 54.4204V54.3122C155.969 53.4467 156.293 52.1844 156.94 50.5255C157.529 48.8666 158.324 47.2076 159.325 45.5487C160.796 43.3127 162.386 41.762 164.093 40.8964C164.682 40.6079 165.271 40.4637 165.859 40.4637C166.742 40.4637 167.596 40.7883 168.42 41.4374C169.009 40.5719 169.303 40.1391 169.303 40.1391C169.539 39.7785 169.774 39.5981 170.01 39.5981L170.539 39.8145C170.775 40.103 170.893 40.4276 170.893 40.7883C170.893 41.0046 170.863 41.185 170.804 41.3292C170.804 41.3292 170.333 42.5914 169.391 45.1159C168.45 47.5683 167.802 50.1649 167.449 52.9057C167.39 53.4827 167.36 54.0958 167.36 54.745C167.36 55.6826 167.508 56.476 167.802 57.1252C168.155 57.7743 168.744 58.2071 169.568 58.4235L170.363 58.5317C172.835 58.5317 176.014 57.2334 179.9 54.6368C183.609 52.3287 186.935 49.9845 189.878 47.6043C192.822 45.2241 194.294 44.034 194.294 44.034L194.558 43.9258L194.912 44.1422L195 44.4668L194.823 44.7913C194.823 44.7913 193.352 46.0536 190.408 48.578C187.465 51.1025 184.138 53.5909 180.43 56.0433C176.132 58.8563 172.659 60.2627 170.01 60.2627ZM158.53 53.0139C159.943 51.8599 161.356 50.4534 162.769 48.7944C164.181 47.0634 165.447 45.4766 166.566 44.034L165.771 43.8176C165.065 43.8176 164.358 44.1422 163.652 44.7913C161.297 47.0273 159.648 49.6239 158.707 52.5811L158.53 53.0139Z" fill="#828282"/>
</svg>
